<?xml version="1.0" encoding="UTF-8"?><svg viewBox="0 0 36 36" version="1.1" xmlns="http://www.w3.org/2000/svg" xmlns:xlink="http://www.w3.org/1999/xlink"><!--Generator: Sketch 63.1 (92452) - https://sketch.com--><title>Icon</title><desc>Created with Sketch.</desc><g id="Symbols" stroke="none" stroke-width="1" fill="none" fill-rule="evenodd"><g id="UI-/-Footer" transform="translate(-1.000000, -439.000000)"><g id="Social" transform="translate(1.000000, 439.000000)"><g id="Icon"><circle id="Mask" fill="#F5F6FA" cx="18" cy="18" r="18"/><path d="M19.9565217,13.1304348 L21.6956522,13.1304348 C21.8876522,13.1304348 22.0434783,12.9746087 22.0434783,12.7826087 L22.0434783,10.4393043 C22.0434783,10.2570435 21.9033043,10.1053913 21.7217391,10.0925217 C21.1683478,10.0532174 20.0873043,10 19.309913,10 C17.173913,10 15.7826087,11.28 15.7826087,13.6062609 L15.7826087,15.9130435 L13.3478261,15.9130435 C13.1558261,15.9130435 13,16.0688696 13,16.2608696 L13,18.6956522 C13,18.8876522 13.1558261,19.0434783 13.3478261,19.0434783 L15.7826087,19.0434783 L15.7826087,25.6521739 C15.7826087,25.8441739 15.9384348,26 16.1304348,26 L18.5652174,26 C18.7572174,26 18.9130435,25.8441739 18.9130435,25.6521739 L18.9130435,19.0434783 L21.4250435,19.0434783 C21.6024348,19.0434783 21.7513043,18.9102609 21.7707826,18.733913 L22.0413913,16.2991304 C22.0643478,16.0932174 21.9029565,15.9130435 21.6956522,15.9130435 L18.9130435,15.9130435 L18.9130435,14.173913 C18.9130435,13.5975652 19.3801739,13.1304348 19.9565217,13.1304348 Z" id="Path" fill="#3B424F" fill-rule="nonzero"/></g></g></g></g></svg>