<?xml version="1.0" encoding="UTF-8"?><svg viewBox="0 0 36 36" version="1.1" xmlns="http://www.w3.org/2000/svg" xmlns:xlink="http://www.w3.org/1999/xlink"><title>Icon</title><defs><circle id="path-1" cx="18" cy="18" r="18"/></defs><g id="Symbols" stroke="none" stroke-width="1" fill="none" fill-rule="evenodd"><g id="UI-/-Footer" transform="translate(-145.000000, -439.000000)"><g id="Social" transform="translate(1.000000, 439.000000)"><g id="Icon" transform="translate(144.000000, 0.000000)"><mask id="mask-2" fill="white"><use xlink:href="#path-1"/></mask><use id="Mask" fill="#F5F6FA" xlink:href="#path-1"/><path d="M14.4444444,10 C11.9902222,10 10,11.9902222 10,14.4444444 L10,21.5555556 C10,24.0097778 11.9902222,26 14.4444444,26 L21.5555556,26 C24.0097778,26 26,24.0097778 26,21.5555556 L26,14.4444444 C26,11.9902222 24.0097778,10 21.5555556,10 L14.4444444,10 Z M23.3333333,11.7777778 C23.824,11.7777778 24.2222222,12.176 24.2222222,12.6666667 C24.2222222,13.1573333 23.824,13.5555556 23.3333333,13.5555556 C22.8426667,13.5555556 22.4444444,13.1573333 22.4444444,12.6666667 C22.4444444,12.176 22.8426667,11.7777778 23.3333333,11.7777778 Z M18,13.5555556 C20.4542222,13.5555556 22.4444444,15.5457778 22.4444444,18 C22.4444444,20.4542222 20.4542222,22.4444444 18,22.4444444 C15.5457778,22.4444444 13.5555556,20.4542222 13.5555556,18 C13.5555556,15.5457778 15.5457778,13.5555556 18,13.5555556 Z M18,15.3333333 C16.5272407,15.3333333 15.3333333,16.5272407 15.3333333,18 C15.3333333,19.4727593 16.5272407,20.6666667 18,20.6666667 C19.4727593,20.6666667 20.6666667,19.4727593 20.6666667,18 C20.6666667,16.5272407 19.4727593,15.3333333 18,15.3333333 Z" id="Shape" fill="#3B424F" fill-rule="nonzero" mask="url(#mask-2)"/></g></g></g></g></svg>