<?xml version="1.0" encoding="UTF-8"?><svg viewBox="0 0 36 36" version="1.1" xmlns="http://www.w3.org/2000/svg" xmlns:xlink="http://www.w3.org/1999/xlink"><!--Generator: Sketch 63.1 (92452) - https://sketch.com--><title>Icon</title><desc>Created with Sketch.</desc><defs><circle id="path-1" cx="18" cy="18" r="18"/></defs><g id="Symbols" stroke="none" stroke-width="1" fill="none" fill-rule="evenodd"><g id="UI-/-Footer" transform="translate(-49.000000, -439.000000)"><g id="Social" transform="translate(1.000000, 439.000000)"><g id="Icon" transform="translate(48.000000, 0.000000)"><mask id="mask-2" fill="white"><use xlink:href="#path-1"/></mask><use id="Mask" fill="#F5F6FA" xlink:href="#path-1"/><path d="M26.9414062,13.2521344 C26.3147209,13.530367 25.6429883,13.7171801 24.936808,13.8019748 C25.6575625,13.3700519 26.2113773,12.6863951 26.4710609,11.8728967 C25.7980034,12.2716964 25.0494258,12.5618532 24.2558009,12.7181931 C23.6198412,12.039836 22.7135985,11.617188 21.710637,11.617188 C19.784209,11.617188 18.2221327,13.1779391 18.2221327,15.1043675 C18.2221327,15.3773001 18.2539306,15.6436081 18.3135518,15.8993172 C15.4146351,15.7535763 12.8456225,14.3650641 11.1245566,12.2544726 C10.8238005,12.7711898 10.6528864,13.3700519 10.6528864,14.0086617 C10.6528864,15.2183101 11.2676475,16.2861927 12.204363,16.912878 C11.6319992,16.894329 11.0940834,16.7366643 10.6237381,16.4756555 C10.6237381,16.4902297 10.6237381,16.5048038 10.6237381,16.519378 C10.6237381,18.2099711 11.826762,19.6183568 13.4206363,19.9403115 C13.1291547,20.0198065 12.8204493,20.0622038 12.5024694,20.0622038 C12.2772335,20.0622038 12.0586224,20.0410051 11.845311,19.9986078 C12.2904828,21.3831452 13.5783014,22.3940563 15.1032797,22.4218795 C13.9108551,23.3572705 12.4070755,23.9137353 10.7721287,23.9137353 C10.4899216,23.9137353 10.2130142,23.8978363 9.9414062,23.8647135 C11.4836086,24.8557508 13.3172927,25.4320891 15.2874432,25.4320891 C21.7026876,25.4320891 25.2110658,20.1178504 25.2110658,15.5097917 C25.2110658,15.3587514 25.207091,15.2063859 25.2017913,15.0579953 C25.8827981,14.5664513 26.4737109,13.9516902 26.9414062,13.2521344 Z" id="Path" fill="#3B424F" fill-rule="nonzero" mask="url(#mask-2)"/></g></g></g></g></svg>