<?xml version="1.0" encoding="UTF-8"?><svg viewBox="0 0 36 36" version="1.1" xmlns="http://www.w3.org/2000/svg" xmlns:xlink="http://www.w3.org/1999/xlink"><!--Generator: Sketch 63.1 (92452) - https://sketch.com--><title>Icon</title><desc>Created with Sketch.</desc><defs><circle id="path-1" cx="18" cy="18" r="18"/></defs><g id="Symbols" stroke="none" stroke-width="1" fill="none" fill-rule="evenodd"><g id="UI-/-Footer" transform="translate(-97.000000, -439.000000)"><g id="Social" transform="translate(1.000000, 439.000000)"><g id="Icon" transform="translate(96.000000, 0.000000)"><mask id="mask-2" fill="white"><use xlink:href="#path-1"/></mask><use id="Mask" fill="#F5F6FA" xlink:href="#path-1"/><path d="M24.0952381,10 L11.9047619,10 C10.8533333,10 10,10.8533333 10,11.9047619 L10,24.0952381 C10,25.1466667 10.8533333,26 11.9047619,26 L24.0952381,26 C25.1466667,26 26,25.1466667 26,24.0952381 L26,11.9047619 C26,10.8533333 25.1466667,10 24.0952381,10 Z M14.952381,16.0952381 L14.952381,23.3333333 L12.6666667,23.3333333 L12.6666667,16.0952381 L14.952381,16.0952381 Z M12.6666667,13.9885714 C12.6666667,13.4552381 13.1238095,13.047619 13.8095238,13.047619 C14.4952381,13.047619 14.9257143,13.4552381 14.952381,13.9885714 C14.952381,14.5219048 14.5257143,14.952381 13.8095238,14.952381 C13.1238095,14.952381 12.6666667,14.5219048 12.6666667,13.9885714 Z M23.3333333,23.3333333 L21.047619,23.3333333 C21.047619,23.3333333 21.047619,19.8057143 21.047619,19.5238095 C21.047619,18.7619048 20.6666667,18 19.7142857,17.9847619 L19.6838095,17.9847619 C18.7619048,17.9847619 18.3809524,18.7695238 18.3809524,19.5238095 C18.3809524,19.8704762 18.3809524,23.3333333 18.3809524,23.3333333 L16.0952381,23.3333333 L16.0952381,16.0952381 L18.3809524,16.0952381 L18.3809524,17.0704762 C18.3809524,17.0704762 19.1161905,16.0952381 20.5942857,16.0952381 C22.1066667,16.0952381 23.3333333,17.1352381 23.3333333,19.2419048 L23.3333333,23.3333333 Z" id="Shape" fill="#3B424F" fill-rule="nonzero" mask="url(#mask-2)"/></g></g></g></g></svg>